ffmpeg version 4.4.2-0ubuntu0.22.04.1 Copyright (c) 2000-2021 the FFmpeg developers
  built with gcc 11 (Ubuntu 11.2.0-19ubuntu1)
  configuration: --prefix=/usr --extra-version=0ubuntu0.22.04.1 --toolchain=hardened --libdir=/usr/lib/x86_64-linux-gnu --incdir=/usr/include/x86_64-linux-gnu --arch=amd64 --enable-gpl --disable-stripping --enable-gnutls --enable-ladspa --enable-libaom --enable-libass --enable-libbluray --enable-libbs2b --enable-libcaca --enable-libcdio --enable-libcodec2 --enable-libdav1d --enable-libflite --enable-libfontconfig --enable-libfreetype --enable-libfribidi --enable-libgme --enable-libgsm --enable-libjack --enable-libmp3lame --enable-libmysofa --enable-libopenjpeg --enable-libopenmpt --enable-libopus --enable-libpulse --enable-librabbitmq --enable-librubberband --enable-libshine --enable-libsnappy --enable-libsoxr --enable-libspeex --enable-libsrt --enable-libssh --enable-libtheora --enable-libtwolame --enable-libvidstab --enable-libvorbis --enable-libvpx --enable-libwebp --enable-libx265 --enable-libxml2 --enable-libxvid --enable-libzimg --enable-libzmq --enable-libzvbi --enable-lv2 --enable-omx --enable-openal --enable-opencl --enable-opengl --enable-sdl2 --enable-pocketsphinx --enable-librsvg --enable-libmfx --enable-libdc1394 --enable-libdrm --enable-libiec61883 --enable-chromaprint --enable-frei0r --enable-libx264 --enable-shared
  libavutil      56. 70.100 / 56. 70.100
  libavcodec     58.134.100 / 58.134.100
  libavformat    58. 76.100 / 58. 76.100
  libavdevice    58. 13.100 / 58. 13.100
  libavfilter     7.110.100 /  7.110.100
  libswscale      5.  9.100 /  5.  9.100
  libswresample   3.  9.100 /  3.  9.100
  libpostproc    55.  9.100 / 55.  9.100
Input #0, flv, from '/storage/32426326/20250618/32426326-20250618-142825-954.flv':
  Metadata:
    level           : 
    fps             : 60
    profile         : 
    encoder         : obs-output module (libobs version 31.0.2)
    displayHeight   : 1440
    Rawdata         : 
    cdn_ip          : 156.59.188.242
    displayWidth    : 2560
    Title           : 技术主播没有GG
    Artist          : 蓝音BuBuLine (32426326)
    Comment         : mikufans直播间 32426326 的直播录像
                    : 主播名: 蓝音BuBuLine
                    : 直播标题: 技术主播没有GG
                    : 直播分区: 单机游戏·主机游戏
                    : 录制时间: 2025-06-18T14:28:25.9772542+00:00
                    : 直播服务器:
                    : d1--ov-gotcha07b.bilivideo.com [156.59.188.242]
                    : 
                    : 使用 mikufans录播姬 录制 https://rec.danmuji.org
                    : 录播姬版本: 2.11.0
    RecordedBy      : BililiveRecorder mikufans录播姬
    RecordedFrom    : d1--ov-gotcha07b.bilivideo.com
    StreamServers   : d1--ov-gotcha07b.bilivideo.com [156.59.188.242]
    RecorderVersion : 2.11.0+Branch.tags-v2.11.0.Sha.d32ebb97483b1ae77acfc6dbcfef17bd64913ccd
    StartTime       : Wed, 18 Jun 2025 14:28:25 +0000
    RoomId          : 32426326
    ShortId         : 0
    Name            : 蓝音BuBuLine
    StreamTitle     : 技术主播没有GG
    AreaNameParent  : 单机游戏
    AreaNameChild   : 主机游戏
  Duration: 06:05:43.19, start: 0.000000, bitrate: 8347 kb/s
  Stream #0:0: Video: h264 (High), yuv420p(tv, bt709, progressive), 2560x1440 [SAR 1:1 DAR 16:9], 10240 kb/s, 60 fps, 60 tbr, 1k tbn, 120 tbc
  Stream #0:1: Audio: aac (LC), 48000 Hz, stereo, fltp, 196 kb/s
Stream mapping:
  Stream #0:0 -> #0:0 (h264 (native) -> png (native))
Press [q] to stop, [?] for help
Output #0, image2, to '/storage/32426326/20250618/32426326-20250618-142825-954.all.thumb.png':
  Metadata:
    level           : 
    fps             : 60
    profile         : 
    AreaNameChild   : 主机游戏
    displayHeight   : 1440
    Rawdata         : 
    cdn_ip          : 156.59.188.242
    displayWidth    : 2560
    Title           : 技术主播没有GG
    Artist          : 蓝音BuBuLine (32426326)
    Comment         : mikufans直播间 32426326 的直播录像
                    : 主播名: 蓝音BuBuLine
                    : 直播标题: 技术主播没有GG
                    : 直播分区: 单机游戏·主机游戏
                    : 录制时间: 2025-06-18T14:28:25.9772542+00:00
                    : 直播服务器:
                    : d1--ov-gotcha07b.bilivideo.com [156.59.188.242]
                    : 
                    : 使用 mikufans录播姬 录制 https://rec.danmuji.org
                    : 录播姬版本: 2.11.0
    RecordedBy      : BililiveRecorder mikufans录播姬
    RecordedFrom    : d1--ov-gotcha07b.bilivideo.com
    StreamServers   : d1--ov-gotcha07b.bilivideo.com [156.59.188.242]
    RecorderVersion : 2.11.0+Branch.tags-v2.11.0.Sha.d32ebb97483b1ae77acfc6dbcfef17bd64913ccd
    StartTime       : Wed, 18 Jun 2025 14:28:25 +0000
    RoomId          : 32426326
    ShortId         : 0
    Name            : 蓝音BuBuLine
    StreamTitle     : 技术主播没有GG
    AreaNameParent  : 单机游戏
    encoder         : Lavf58.76.100
  Stream #0:0: Video: png, rgb24(pc, gbr/bt709/bt709, progressive), 2560x1440 [SAR 1:1 DAR 16:9], q=2-31, 200 kb/s, 60 fps, 60 tbn
    Metadata:
      encoder         : Lavc58.134.100 png
frame=    1 fps=0.0 q=0.0 size=N/A time=00:00:00.00 bitrate=N/A speed=   0x    frame=    1 fps=0.0 q=-0.0 Lsize=N/A time=00:00:00.01 bitrate=N/A speed=0.0482x    
video:3449kB audio:0kB subtitle:0kB other streams:0kB global headers:0kB muxing overhead: unknown
ffmpeg version 4.4.2-0ubuntu0.22.04.1 Copyright (c) 2000-2021 the FFmpeg developers
  built with gcc 11 (Ubuntu 11.2.0-19ubuntu1)
  configuration: --prefix=/usr --extra-version=0ubuntu0.22.04.1 --toolchain=hardened --libdir=/usr/lib/x86_64-linux-gnu --incdir=/usr/include/x86_64-linux-gnu --arch=amd64 --enable-gpl --disable-stripping --enable-gnutls --enable-ladspa --enable-libaom --enable-libass --enable-libbluray --enable-libbs2b --enable-libcaca --enable-libcdio --enable-libcodec2 --enable-libdav1d --enable-libflite --enable-libfontconfig --enable-libfreetype --enable-libfribidi --enable-libgme --enable-libgsm --enable-libjack --enable-libmp3lame --enable-libmysofa --enable-libopenjpeg --enable-libopenmpt --enable-libopus --enable-libpulse --enable-librabbitmq --enable-librubberband --enable-libshine --enable-libsnappy --enable-libsoxr --enable-libspeex --enable-libsrt --enable-libssh --enable-libtheora --enable-libtwolame --enable-libvidstab --enable-libvorbis --enable-libvpx --enable-libwebp --enable-libx265 --enable-libxml2 --enable-libxvid --enable-libzimg --enable-libzmq --enable-libzvbi --enable-lv2 --enable-omx --enable-openal --enable-opencl --enable-opengl --enable-sdl2 --enable-pocketsphinx --enable-librsvg --enable-libmfx --enable-libdc1394 --enable-libdrm --enable-libiec61883 --enable-chromaprint --enable-frei0r --enable-libx264 --enable-shared
  libavutil      56. 70.100 / 56. 70.100
  libavcodec     58.134.100 / 58.134.100
  libavformat    58. 76.100 / 58. 76.100
  libavdevice    58. 13.100 / 58. 13.100
  libavfilter     7.110.100 /  7.110.100
  libswscale      5.  9.100 /  5.  9.100
  libswresample   3.  9.100 /  3.  9.100
  libpostproc    55.  9.100 / 55.  9.100
[flv @ 0x561386b56fc0] Auto-inserting h264_mp4toannexb bitstream filter
Input #0, concat, from '/storage/32426326/20250618/32426326-20250618-142825-954.all.concat.txt':
  Duration: N/A, start: 0.000000, bitrate: 10436 kb/s
  Stream #0:0: Video: h264 (High), yuv420p(tv, bt709, progressive), 2560x1440 [SAR 1:1 DAR 16:9], 10240 kb/s, 60 fps, 60 tbr, 1k tbn, 120 tbc
  Stream #0:1: Audio: aac (LC), 48000 Hz, stereo, fltp, 196 kb/s
Output #0, flv, to '/storage/32426326/20250618/32426326-20250618-142825-954.all.flv':
  Metadata:
    encoder         : Lavf58.76.100
  Stream #0:0: Video: h264 (High) ([7][0][0][0] / 0x0007), yuv420p(tv, bt709, progressive), 2560x1440 [SAR 1:1 DAR 16:9], q=2-31, 10240 kb/s, 60 fps, 60 tbr, 1k tbn, 1k tbc
  Stream #0:1: Audio: aac (LC) ([10][0][0][0] / 0x000A), 48000 Hz, stereo, fltp, 196 kb/s
Stream mapping:
  Stream #0:0 -> #0:0 (copy)
  Stream #0:1 -> #0:1 (copy)
Press [q] to stop, [?] for help
frame=    1 fps=0.0 q=-1.0 size=       0kB time=00:00:00.00 bitrate=1125.3kbits/s speed=N/A    frame= 4502 fps=0.0 q=-1.0 size=   33536kB time=00:01:15.01 bitrate=3662.4kbits/s speed= 150x    frame= 7870 fps=7861 q=-1.0 size=   67840kB time=00:02:11.14 bitrate=4237.6kbits/s speed= 131x    frame= 9885 fps=6584 q=-1.0 size=  105984kB time=00:02:44.73 bitrate=5270.4kbits/s speed= 110x    frame=11896 fps=5944 q=-1.0 size=  146944kB time=00:03:18.25 bitrate=6071.9kbits/s speed=99.1x    frame=14063 fps=5622 q=-1.0 size=  185088kB time=00:03:54.36 bitrate=6469.5kbits/s speed=93.7x    frame=15965 fps=5317 q=-1.0 size=  224512kB time=00:04:26.06 bitrate=6912.7kbits/s speed=88.6x    frame=17767 fps=5072 q=-1.0 size=  261888kB time=00:04:56.10 bitrate=7245.3kbits/s speed=84.5x    frame=19626 fps=4903 q=-1.0 size=  300544kB time=00:05:27.08 bitrate=7527.3kbits/s speed=81.7x    frame=21387 fps=4749 q=-1.0 size=  337152kB time=00:05:56.43 bitrate=7748.8kbits/s speed=79.2x    frame=23152 fps=4627 q=-1.0 size=  374016kB time=00:06:25.84 bitrate=7940.8kbits/s speed=77.1x    frame=24961 fps=4536 q=-1.0 size=  411392kB time=00:06:56.00 bitrate=8101.3kbits/s speed=75.6x    frame=26864 fps=4475 q=-1.0 size=  451072kB time=00:07:27.72 bitrate=8253.3kbits/s speed=74.6x    frame=28780 fps=4425 q=-1.0 size=  491008kB time=00:07:59.64 bitrate=8386.1kbits/s speed=73.7x    frame=30707 fps=4384 q=-1.0 size=  530688kB time=00:08:31.76 bitrate=8494.9kbits/s speed=73.1x    frame=32627 fps=4348 q=-1.0 size=  570624kB time=00:09:03.76 bitrate=8596.7kbits/s speed=72.5x    frame=34342 fps=4290 q=-1.0 size=  606208kB time=00:09:32.35 bitrate=8676.6kbits/s speed=71.5x    frame=36248 fps=4262 q=-1.0 size=  645888kB time=00:10:04.11 bitrate=8758.4kbits/s speed=  71x    frame=38055 fps=4226 q=-1.0 size=  683520kB time=00:10:34.22 bitrate=8828.7kbits/s speed=70.4x    frame=39966 fps=4205 q=-1.0 size=  723200kB time=00:11:06.09 bitrate=8894.4kbits/s speed=70.1x    frame=41960 fps=4193 q=-1.0 size=  764672kB time=00:11:39.31 bitrate=8957.6kbits/s speed=69.9x    frame=43681 fps=4157 q=-1.0 size=  800512kB time=00:12:08.00 bitrate=9008.0kbits/s speed=69.3x    frame=45923 fps=4172 q=-1.0 size=  841216kB time=00:12:45.36 bitrate=9003.9kbits/s speed=69.5x    frame=47977 fps=4169 q=-1.0 size=  882944kB time=00:13:19.59 bitrate=9045.9kbits/s speed=69.5x    frame=49862 fps=4153 q=-1.0 size=  921088kB time=00:13:51.01 bitrate=9079.9kbits/s speed=69.2x    frame=51994 fps=4157 q=-1.0 size=  959488kB time=00:14:26.54 bitrate=9070.6kbits/s speed=69.3x    frame=53783 fps=4135 q=-1.0 size=  996608kB time=00:14:56.36 bitrate=9108.2kbits/s speed=68.9x    frame=55493 fps=4108 q=-1.0 size= 1032192kB time=00:15:24.86 bitrate=9142.7kbits/s speed=68.5x    frame=57383 fps=4096 q=-1.0 size= 1071360kB time=00:15:56.36 bitrate=9177.0kbits/s speed=68.3x    frame=59148 fps=4077 q=-1.0 size= 1108224kB time=00:16:25.77 bitrate=9209.5kbits/s speed=67.9x    frame=60961 fps=4062 q=-1.0 size= 1145856kB time=00:16:56.00 bitrate=9239.0kbits/s speed=67.7x    frame=62900 fps=4056 q=-1.0 size= 1186048kB time=00:17:28.32 bitrate=9268.3kbits/s speed=67.6x    frame=64913 fps=4055 q=-1.0 size= 1227776kB time=00:18:01.87 bitrate=9296.7kbits/s speed=67.6x    frame=66879 fps=4051 q=-1.0 size= 1268736kB time=00:18:34.62 bitrate=9324.6kbits/s speed=67.5x    frame=68958 fps=4054 q=-1.0 size= 1307648kB time=00:19:09.27 bitrate=9320.8kbits/s speed=67.6x    frame=70868 fps=4047 q=-1.0 size= 1347328kB time=00:19:41.11 bitrate=9344.8kbits/s speed=67.4x    frame=73184 fps=4063 q=-1.0 size= 1388800kB time=00:20:19.71 bitrate=9327.6kbits/s speed=67.7x    frame=74970 fps=4050 q=-1.0 size= 1425920kB time=00:20:49.49 bitrate=9348.7kbits/s speed=67.5x    frame=76956 fps=4048 q=-1.0 size= 1467136kB time=00:21:22.58 bitrate=9370.8kbits/s speed=67.5x    frame=78878 fps=4043 q=-1.0 size= 1506816kB time=00:21:54.61 bitrate=9389.7kbits/s speed=67.4x    frame=80625 fps=4029 q=-1.0 size= 1543168kB time=00:22:23.74 bitrate=9407.8kbits/s speed=67.1x    frame=82602 fps=4027 q=-1.0 size= 1584384kB time=00:22:56.67 bitrate=9428.0kbits/s speed=67.1x    frame=84412 fps=4017 q=-1.0 size= 1621760kB time=00:23:26.84 bitrate=9443.4kbits/s speed=  67x    frame=86685 fps=4029 q=-1.0 size= 1663232kB time=00:24:04.72 bitrate=9431.0kbits/s speed=67.2x    frame=88624 fps=4026 q=-1.0 size= 1703424kB time=00:24:37.04 bitrate=9447.5kbits/s speed=67.1x    frame=90779 fps=4032 q=-1.0 size= 1740800kB time=00:25:12.96 bitrate=9425.6kbits/s speed=67.2x    frame=92728 fps=4029 q=-1.0 size= 1781504kB time=00:25:45.44 bitrate=9443.3kbits/s speed=67.2x    frame=94652 fps=4025 q=-1.0 size= 1821184kB time=00:26:17.51 bitrate=9457.4kbits/s speed=67.1x    frame=96475 fps=4017 q=-1.0 size= 1859072kB time=00:26:47.89 bitrate=9471.7kbits/s speed=  67x    frame=98433 fps=4015 q=-1.0 size= 1899776kB time=00:27:20.52 bitrate=9486.6kbits/s speed=66.9x    frame=100189 fps=4005 q=-1.0 size= 1936384kB time=00:27:49.79 bitrate=9499.9kbits/s speed=66.7x    frame=102154 fps=4003 q=-1.0 size= 1977088kB time=00:28:22.54 bitrate=9513.0kbits/s speed=66.7x    frame=104089 fps=4001 q=-1.0 size= 2017280kB time=00:28:54.79 bitrate=9525.9kbits/s speed=66.7x    frame=105890 fps=3993 q=-1.0 size= 2054656kB time=00:29:24.82 bitrate=9537.4kbits/s speed=66.6x    frame=107905 fps=3994 q=-1.0 size= 2096384kB time=00:29:58.40 bitrate=9549.4kbits/s speed=66.6x    frame=109821 fps=3991 q=-1.0 size= 2136320kB time=00:30:30.33 bitrate=9561.5kbits/s speed=66.5x    frame=111803 fps=3990 q=-1.0 size= 2177792kB time=00:31:03.36 bitrate=9574.3kbits/s speed=66.5x    frame=113726 fps=3988 q=-1.0 size= 2217472kB time=00:31:35.42 bitrate=9583.9kbits/s speed=66.5x    frame=115589 fps=3983 q=-1.0 size= 2256384kB time=00:32:06.46 bitrate=9594.9kbits/s speed=66.4x    frame=117420 fps=3978 q=-1.0 size= 2294272kB time=00:32:36.99 bitrate=9603.9kbits/s speed=66.3x    frame=119286 fps=3973 q=-1.0 size= 2332928kB time=00:33:08.07 bitrate=9613.0kbits/s speed=66.2x    frame=121203 fps=3971 q=-1.0 size= 2371328kB time=00:33:40.03 bitrate=9616.6kbits/s speed=66.2x    frame=123495 fps=3981 q=-1.0 size= 2414336kB time=00:34:18.24 bitrate=9609.3kbits/s speed=66.3x    frame=125478 fps=3981 q=-1.0 size= 2455552kB time=00:34:51.27 bitrate=9618.9kbits/s speed=66.3x    frame=127754 fps=3990 q=-1.0 size= 2498048kB time=00:35:29.21 bitrate=9611.1kbits/s speed=66.5x    frame=129679 fps=3987 q=-1.0 size= 2537984kB time=00:36:01.29 bitrate=9619.8kbits/s speed=66.5x    frame=131657 fps=3987 q=-1.0 size= 2578944kB time=00:36:34.26 bitrate=9628.2kbits/s speed=66.4x    frame=133513 fps=3983 q=-1.0 size= 2617344kB time=00:37:05.19 bitrate=9635.7kbits/s speed=66.4x    frame=135293 fps=3976 q=-1.0 size= 2654464kB time=00:37:34.87 bitrate=9643.7kbits/s speed=66.3x    frame=136858 fps=3964 q=-1.0 size= 2686976kB time=00:38:00.96 bitrate=9650.2kbits/s speed=66.1x    frame=138659 fps=3959 q=-1.0 size= 2724608kB time=00:38:30.97 bitrate=9658.3kbits/s speed=  66x    frame=140321 fps=3950 q=-1.0 size= 2759168kB time=00:38:58.66 bitrate=9665.0kbits/s speed=65.8x    frame=142166 fps=3946 q=-1.0 size= 2797568kB time=00:39:29.41 bitrate=9672.3kbits/s speed=65.8x    frame=143913 fps=3940 q=-1.0 size= 2833664kB time=00:39:58.52 bitrate=9678.2kbits/s speed=65.7x    frame=145597 fps=3932 q=-1.0 size= 2868480kB time=00:40:26.60 bitrate=9683.7kbits/s speed=65.5x    frame=147287 fps=3925 q=-1.0 size= 2903808kB time=00:40:54.76 bitrate=9690.5kbits/s speed=65.4x    frame=149030 fps=3919 q=-1.0 size= 2940160kB time=00:41:23.81 bitrate=9697.1kbits/s speed=65.3x    frame=150875 fps=3916 q=-1.0 size= 2978560kB time=00:41:54.56 bitrate=9703.6kbits/s speed=65.3x    frame=152895 fps=3918 q=-1.0 size= 3020032kB time=00:42:28.22 bitrate=9708.7kbits/s speed=65.3x    frame=154918 fps=3919 q=-1.0 size= 3056384kB time=00:43:01.94 bitrate=9697.3kbits/s speed=65.3x    frame=157113 fps=3925 q=-1.0 size= 3096064kB time=00:43:38.53 bitrate=9685.9kbits/s speed=65.4x    frame=158896 fps=3921 q=-1.0 size= 3132928kB time=00:44:08.24 bitrate=9691.3kbits/s speed=65.3x    frame=160924 fps=3922 q=-1.0 size= 3174912kB time=00:44:42.04 bitrate=9697.4kbits/s speed=65.4x    frame=162817 fps=3921 q=-1.0 size= 3214336kB time=00:45:13.60 bitrate=9703.7kbits/s speed=65.3x    frame=164583 fps=3916 q=-1.0 size= 3251200kB time=00:45:43.04 bitrate=9709.6kbits/s speed=65.3x    frame=166532 fps=3916 q=-1.0 size= 3291648kB time=00:46:15.51 bitrate=9715.4kbits/s speed=65.3x    frame=168487 fps=3916 q=-1.0 size= 3332352kB time=00:46:48.10 bitrate=9721.4kbits/s speed=65.3x    frame=170238 fps=3911 q=-1.0 size= 3368448kB time=00:47:17.29 bitrate=9725.6kbits/s speed=65.2x    frame=172038 fps=3907 q=-1.0 size= 3406080kB time=00:47:47.27 bitrate=9731.4kbits/s speed=65.1x    frame=173849 fps=3904 q=-1.0 size= 3443712kB time=00:48:17.46 bitrate=9736.4kbits/s speed=65.1x    frame=175736 fps=3903 q=-1.0 size= 3482880kB time=00:48:48.91 bitrate=9741.4kbits/s speed=  65x    frame=177564 fps=3900 q=-1.0 size= 3521024kB time=00:49:19.37 bitrate=9746.7kbits/s speed=  65x    frame=179327 fps=3896 q=-1.0 size= 3557632kB time=00:49:48.76 bitrate=9751.2kbits/s speed=64.9x    frame=181231 fps=3895 q=-1.0 size= 3597312kB time=00:50:20.49 bitrate=9756.4kbits/s speed=64.9x    frame=183091 fps=3893 q=-1.0 size= 3635968kB time=00:50:51.49 bitrate=9761.1kbits/s speed=64.9x    frame=184784 fps=3888 q=-1.0 size= 3671040kB time=00:51:19.72 bitrate=9764.9kbits/s speed=64.8x    frame=186611 fps=3885 q=-1.0 size= 3708928kB time=00:51:50.16 bitrate=9769.1kbits/s speed=64.8x    frame=188395 fps=3882 q=-1.0 size= 3744768kB time=00:52:19.89 bitrate=9770.1kbits/s speed=64.7x    frame=190644 fps=3888 q=-1.0 size= 3786752kB time=00:52:57.38 bitrate=9763.1kbits/s speed=64.8x    frame=192514 fps=3886 q=-1.0 size= 3825408kB time=00:53:28.55 bitrate=9766.9kbits/s speed=64.8x    frame=194835 fps=3894 q=-1.0 size= 3866112kB time=00:54:07.23 bitrate=9753.3kbits/s speed=64.9x    frame=196664 fps=3892 q=-1.0 size= 3904256kB time=00:54:37.71 bitrate=9757.9kbits/s speed=64.9x    frame=198697 fps=3893 q=-1.0 size= 3946752kB time=00:55:11.59 bitrate=9763.2kbits/s speed=64.9x    frame=200661 fps=3894 q=-1.0 size= 3987456kB time=00:55:44.32 bitrate=9767.4kbits/s speed=64.9x    frame=203049 fps=3902 q=-1.0 size= 4030208kB time=00:56:24.12 bitrate=9756.0kbits/s speed=  65x    frame=205262 fps=3907 q=-1.0 size= 4068864kB time=00:57:01.01 bitrate=9743.3kbits/s speed=65.1x    frame=207122 fps=3905 q=-1.0 size= 4107520kB time=00:57:32.01 bitrate=9747.6kbits/s speed=65.1x    frame=209056 fps=3905 q=-1.0 size= 4147456kB time=00:58:04.24 bitrate=9751.3kbits/s speed=65.1x    frame=210813 fps=3901 q=-1.0 size= 4184064kB time=00:58:33.53 bitrate=9755.4kbits/s speed=  65x    frame=213072 fps=3907 q=-1.0 size= 4226304kB time=00:59:11.17 bitrate=9749.4kbits/s speed=65.1x    frame=215167 fps=3909 q=-1.0 size= 4263680kB time=00:59:46.09 bitrate=9739.9kbits/s speed=65.2x    frame=217212 fps=3911 q=-1.0 size= 4304384kB time=01:00:20.17 bitrate=9740.3kbits/s speed=65.2x    frame=219261 fps=3913 q=-1.0 size= 4347136kB time=01:00:54.32 bitrate=9745.1kbits/s speed=65.2x    frame=221149 fps=3911 q=-1.0 size= 4386048kB time=01:01:25.79 bitrate=9748.4kbits/s speed=65.2x    frame=223105 fps=3911 q=-1.0 size= 4426752kB time=01:01:58.40 bitrate=9752.6kbits/s speed=65.2x    frame=224966 fps=3910 q=-1.0 size= 4465408kB time=01:02:29.41 bitrate=9756.4kbits/s speed=65.2x    frame=226807 fps=3908 q=-1.0 size= 4503552kB time=01:03:00.09 bitrate=9759.8kbits/s speed=65.1x    frame=228671 fps=3906 q=-1.0 size= 4542464kB time=01:03:31.16 bitrate=9763.9kbits/s speed=65.1x    frame=230453 fps=3903 q=-1.0 size= 4579328kB time=01:04:00.87 bitrate=9767.0kbits/s speed=65.1x    frame=232256 fps=3901 q=-1.0 size= 4617216kB time=01:04:30.91 bitrate=9771.4kbits/s speed=  65x    frame=234200 fps=3901 q=-1.0 size= 4657408kB time=01:05:03.31 bitrate=9774.6kbits/s speed=  65x    frame=236065 fps=3899 q=-1.0 size= 4696064kB time=01:05:34.40 bitrate=9777.9kbits/s speed=  65x    frame=237982 fps=3899 q=-1.0 size= 4735744kB time=01:06:06.35 bitrate=9781.1kbits/s speed=  65x    frame=239749 fps=3896 q=-1.0 size= 4772608kB time=01:06:35.79 bitrate=9784.6kbits/s speed=64.9x    frame=241550 fps=3893 q=-1.0 size= 4809984kB time=01:07:05.81 bitrate=9787.7kbits/s speed=64.9x    frame=243461 fps=3893 q=-1.0 size= 4849664kB time=01:07:37.66 bitrate=9791.0kbits/s speed=64.9x    frame=245547 fps=3895 q=-1.0 size= 4888320kB time=01:08:12.43 bitrate=9785.1kbits/s speed=64.9x    frame=247408 fps=3894 q=-1.0 size= 4926976kB time=01:08:43.44 bitrate=9788.4kbits/s speed=64.9x    frame=249808 fps=3901 q=-1.0 size= 4967424kB time=01:09:23.45 bitrate=9773.9kbits/s speed=  65x    frame=251590 fps=3898 q=-1.0 size= 5004544kB time=01:09:53.14 bitrate=9777.2kbits/s speed=  65x    frame=253576 fps=3898 q=-1.0 size= 5045760kB time=01:10:26.24 bitrate=9780.5kbits/s speed=  65x    frame=255397 fps=3897 q=-1.0 size= 5083392kB time=01:10:56.59 bitrate=9783.2kbits/s speed=64.9x    frame=257359 fps=3897 q=-1.0 size= 5124352kB time=01:11:29.29 bitrate=9786.8kbits/s speed=64.9x    frame=259359 fps=3897 q=-1.0 size= 5166080kB time=01:12:02.62 bitrate=9790.5kbits/s speed=  65x    frame=261290 fps=3897 q=-1.0 size= 5206016kB time=01:12:34.81 bitrate=9793.2kbits/s speed=  65x    frame=263301 fps=3898 q=-1.0 size= 5247488kB time=01:13:08.32 bitrate=9795.9kbits/s speed=  65x    frame=265249 fps=3898 q=-1.0 size= 5288192kB time=01:13:40.79 bitrate=9799.3kbits/s speed=  65x    frame=267020 fps=3895 q=-1.0 size= 5325056kB time=01:14:10.31 bitrate=9802.2kbits/s speed=64.9x    frame=269047 fps=3897 q=-1.0 size= 5366784kB time=01:14:44.09 bitrate=9804.6kbits/s speed=64.9x    frame=270827 fps=3894 q=-1.0 size= 5404160kB time=01:15:13.77 bitrate=9808.0kbits/s speed=64.9x    frame=272690 fps=3893 q=-1.0 size= 5442816kB time=01:15:44.81 bitrate=9810.6kbits/s speed=64.9x    frame=274625 fps=3893 q=-1.0 size= 5483008kB time=01:16:17.06 bitrate=9813.5kbits/s speed=64.9x    frame=276591 fps=3893 q=-1.0 size= 5523712kB time=01:16:49.82 bitrate=9816.0kbits/s speed=64.9x    frame=278549 fps=3893 q=-1.0 size= 5564416kB time=01:17:22.46 bitrate=9818.9kbits/s speed=64.9x    frame=280565 fps=3894 q=-1.0 size= 5606400kB time=01:17:56.07 bitrate=9821.8kbits/s speed=64.9x    frame=282307 fps=3891 q=-1.0 size= 5642496kB time=01:18:25.11 bitrate=9824.1kbits/s speed=64.9x    frame=284642 fps=3897 q=-1.0 size= 5685504kB time=01:19:04.02 bitrate=9817.8kbits/s speed=64.9x    frame=286622 fps=3897 q=-1.0 size= 5725184kB time=01:19:37.01 bitrate=9818.0kbits/s speed=64.9x    frame=289093 fps=3904 q=-1.0 size= 5766912kB time=01:20:18.19 bitrate=9805.0kbits/s speed=65.1x    frame=290912 fps=3902 q=-1.0 size= 5804800kB time=01:20:48.51 bitrate=9807.7kbits/s speed=  65x    frame=292842 fps=3902 q=-1.0 size= 5844992kB time=01:21:20.67 bitrate=9810.6kbits/s speed=  65x    frame=294815 fps=3902 q=-1.0 size= 5885952kB time=01:21:53.56 bitrate=9813.2kbits/s speed=  65x    frame=296794 fps=3902 q=-1.0 size= 5927168kB time=01:22:26.54 bitrate=9816.0kbits/s speed=  65x    frame=298821 fps=3903 q=-1.0 size= 5969152kB time=01:23:00.33 bitrate=9818.5kbits/s speed=65.1x    frame=300761 fps=3903 q=-1.0 size= 6009344kB time=01:23:32.67 bitrate=9820.8kbits/s speed=65.1x    frame=302589 fps=3902 q=-1.0 size= 6047488kB time=01:24:03.12 bitrate=9823.5kbits/s speed=  65x    frame=304572 fps=3902 q=-1.0 size= 6088704kB time=01:24:36.17 bitrate=9826.0kbits/s speed=  65x    frame=306369 fps=3900 q=-1.0 size= 6126080kB time=01:25:06.13 bitrate=9828.3kbits/s speed=  65x    frame=308393 fps=3901 q=-1.0 size= 6168064kB time=01:25:39.86 bitrate=9830.8kbits/s speed=  65x    frame=310374 fps=3901 q=-1.0 size= 6209280kB time=01:26:12.88 bitrate=9833.3kbits/s speed=  65x    frame=312687 fps=3906 q=-1.0 size= 6248704kB time=01:26:51.43 bitrate=9822.5kbits/s speed=65.1x    frame=314960 fps=3910 q=-1.0 size= 6291456kB time=01:27:29.31 bitrate=9818.4kbits/s speed=65.2x    frame=316989 fps=3911 q=-1.0 size= 6331904kB time=01:28:03.13 bitrate=9818.2kbits/s speed=65.2x    frame=318833 fps=3909 q=-1.0 size= 6370304kB time=01:28:33.87 bitrate=9820.6kbits/s speed=65.2x    frame=320899 fps=3911 q=-1.0 size= 6410240kB time=01:29:08.29 bitrate=9818.6kbits/s speed=65.2x    frame=322596 fps=3908 q=-1.0 size= 6445568kB time=01:29:36.57 bitrate=9820.8kbits/s speed=65.1x    frame=324620 fps=3908 q=-1.0 size= 6487552kB time=01:30:10.32 bitrate=9823.1kbits/s speed=65.1x    frame=326808 fps=3911 q=-1.0 size= 6526976kB time=01:30:46.77 bitrate=9816.6kbits/s speed=65.2x    frame=331161 fps=3940 q=-1.0 size= 6566144kB time=01:31:59.32 bitrate=9745.7kbits/s speed=65.7x    frame=334339 fps=3954 q=-1.0 size= 6606848kB time=01:32:52.29 bitrate=9712.9kbits/s speed=65.9x    frame=337053 fps=3963 q=-1.0 size= 6646784kB time=01:33:37.52 bitrate=9693.0kbits/s speed=  66x    frame=339057 fps=3963 q=-1.0 size= 6681600kB time=01:34:10.94 bitrate=9686.1kbits/s speed=  66x    frame=342003 fps=3974 q=-1.0 size= 6721536kB time=01:35:00.03 bitrate=9660.1kbits/s speed=66.2x    frame=344801 fps=3983 q=-1.0 size= 6758144kB time=01:35:46.66 bitrate=9633.9kbits/s speed=66.4x    frame=347765 fps=3995 q=-1.0 size= 6798592kB time=01:36:36.07 bitrate=9608.9kbits/s speed=66.6x    frame=350982 fps=4008 q=-1.0 size= 6840576kB time=01:37:29.67 bitrate=9579.7kbits/s speed=66.8x    frame=353551 fps=4015 q=-1.0 size= 6881536kB time=01:38:12.50 bitrate=9567.0kbits/s speed=66.9x    frame=356715 fps=4028 q=-1.0 size= 6923520kB time=01:39:05.22 bitrate=9540.0kbits/s speed=67.1x    frame=359247 fps=4034 q=-1.0 size= 6965760kB time=01:39:47.43 bitrate=9530.5kbits/s speed=67.2x    frame=362115 fps=4043 q=-1.0 size= 7004416kB time=01:40:35.22 bitrate=9507.5kbits/s speed=67.4x    frame=364898 fps=4052 q=-1.0 size= 7046400kB time=01:41:21.62 bitrate=9491.6kbits/s speed=67.5x    frame=367676 fps=4060 q=-1.0 size= 7082496kB time=01:42:07.91 bitrate=9468.1kbits/s speed=67.7x    frame=370549 fps=4069 q=-1.0 size= 7126528kB time=01:42:55.79 bitrate=9453.1kbits/s speed=67.8x    frame=372826 fps=4072 q=-1.0 size= 7169024kB time=01:43:33.76 bitrate=9451.4kbits/s speed=67.9x    frame=376694 fps=4092 q=-1.0 size= 7208704kB time=01:44:38.21 bitrate=9406.1kbits/s speed=68.2x    frame=378744 fps=4092 q=-1.0 size= 7246336kB time=01:45:12.37 bitrate=9404.1kbits/s speed=68.2x    frame=380992 fps=4094 q=-1.0 size= 7283456kB time=01:45:49.84 bitrate=9396.5kbits/s speed=68.2x    frame=382970 fps=4093 q=-1.0 size= 7317760kB time=01:46:22.82 bitrate=9391.9kbits/s speed=68.2x    frame=385268 fps=4096 q=-1.0 size= 7357696kB time=01:47:01.12 bitrate=9386.9kbits/s speed=68.3x    frame=387535 fps=4098 q=-1.0 size= 7397120kB time=01:47:38.89 bitrate=9382.0kbits/s speed=68.3x    frame=389679 fps=4099 q=-1.0 size= 7437312kB time=01:48:14.62 bitrate=9381.1kbits/s speed=68.3x    frame=391969 fps=4102 q=-1.0 size= 7478528kB time=01:48:52.80 bitrate=9377.9kbits/s speed=68.4x    frame=394452 fps=4106 q=-1.0 size= 7521792kB time=01:49:34.17 bitrate=9372.8kbits/s speed=68.4x    frame=402959 fps=4173 q=-1.0 size= 7552512kB time=01:51:55.96 bitrate=9212.4kbits/s speed=69.5x    frame=417580 fps=4302 q=-1.0 size= 7585792kB time=01:55:59.65 bitrate=8929.0kbits/s speed=71.7x    frame=427937 fps=4386 q=-1.0 size= 7620352kB time=01:58:52.26 bitrate=8752.6kbits/s speed=73.1x    frame=433783 fps=4423 q=-1.0 size= 7658496kB time=02:00:29.69 bitrate=8677.9kbits/s speed=73.7x    frame=436092 fps=4424 q=-1.0 size= 7700224kB time=02:01:08.18 bitrate=8679.0kbits/s speed=73.7x    frame=441172 fps=4453 q=-1.0 size= 7738624kB time=02:02:32.84 bitrate=8621.8kbits/s speed=74.2x    frame=446365 fps=4483 q=-1.0 size= 7778560kB time=02:03:59.39 bitrate=8565.5kbits/s speed=74.7x    frame=448603 fps=4483 q=-1.0 size= 7820288kB time=02:04:36.69 bitrate=8568.5kbits/s speed=74.7x    frame=450748 fps=4482 q=-1.0 size= 7857920kB time=02:05:12.44 bitrate=8568.7kbits/s speed=74.7x    frame=453155 fps=4484 q=-1.0 size= 7900160kB time=02:05:52.56 bitrate=8569.0kbits/s speed=74.7x    frame=455365 fps=4483 q=-1.0 size= 7938560kB time=02:06:29.39 bitrate=8568.9kbits/s speed=74.7x    frame=457607 fps=4483 q=-1.0 size= 7980032kB time=02:07:06.77 bitrate=8571.4kbits/s speed=74.7x    frame=459817 fps=4483 q=-1.0 size= 8020480kB time=02:07:43.59 bitrate=8573.5kbits/s speed=74.7x    frame=463432 fps=4496 q=-1.0 size= 8059648kB time=02:08:43.84 bitrate=8548.2kbits/s speed=74.9x    frame=465748 fps=4497 q=-1.0 size= 8098304kB time=02:09:22.44 bitrate=8546.4kbits/s speed=74.9x    frame=467983 fps=4497 q=-1.0 size= 8140288kB time=02:09:59.70 bitrate=8549.7kbits/s speed=74.9x    frame=471382 fps=4508 q=-1.0 size= 8174080kB time=02:10:56.34 bitrate=8523.3kbits/s speed=75.1x    frame=473993 fps=4511 q=-1.0 size= 8213504kB time=02:11:39.86 bitrate=8517.2kbits/s speed=75.2x    frame=476555 fps=4514 q=-1.0 size= 8249600kB time=02:12:22.57 bitrate=8508.7kbits/s speed=75.2x    frame=480402 fps=4529 q=-1.0 size= 8287232kB time=02:13:26.67 bitrate=8479.0kbits/s speed=75.5x    frame=482749 fps=4530 q=-1.0 size= 8327424kB time=02:14:05.80 bitrate=8478.7kbits/s speed=75.5x    frame=485249 fps=4532 q=-1.0 size= 8368128kB time=02:14:47.46 bitrate=8476.3kbits/s speed=75.5x    frame=487864 fps=4535 q=-1.0 size= 8409600kB time=02:15:31.05 bitrate=8472.6kbits/s speed=75.6x    frame=490346 fps=4537 q=-1.0 size= 8450048kB time=02:16:12.41 bitrate=8470.3kbits/s speed=75.6x    frame=493606 fps=4546 q=-1.0 size= 8485888kB time=02:17:06.74 bitrate=8450.0kbits/s speed=75.8x    frame=496003 fps=4547 q=-1.0 size= 8528896kB time=02:17:46.71 bitrate=8451.8kbits/s speed=75.8x    frame=498634 fps=4551 q=-1.0 size= 8567808kB time=02:18:30.54 bitrate=8445.6kbits/s speed=75.8x    frame=500864 fps=4550 q=-1.0 size= 8608000kB time=02:19:07.71 bitrate=8447.4kbits/s speed=75.8x    frame=503221 fps=4551 q=-1.0 size= 8649472kB time=02:19:47.00 bitrate=8448.4kbits/s speed=75.8x    frame=505425 fps=4550 q=-1.0 size= 8690944kB time=02:20:23.72 bitrate=8451.9kbits/s speed=75.8x    frame=508414 fps=4557 q=-1.0 size= 8731648kB time=02:21:13.55 bitrate=8441.5kbits/s speed=75.9x    frame=511782 fps=4566 q=-1.0 size= 8771328kB time=02:22:09.67 bitrate=8424.1kbits/s speed=76.1x    frame=514666 fps=4572 q=-1.0 size= 8808192kB time=02:22:57.75 bitrate=8412.1kbits/s speed=76.2x    frame=516628 fps=4569 q=-1.0 size= 8849152kB time=02:23:30.44 bitrate=8419.1kbits/s speed=76.1x    frame=519327 fps=4572 q=-1.0 size= 8885760kB time=02:24:15.42 bitrate=8410.0kbits/s speed=76.2x    frame=523590 fps=4590 q=-1.0 size= 8923904kB time=02:25:26.47 bitrate=8377.3kbits/s speed=76.5x    frame=528035 fps=4608 q=-1.0 size= 8962048kB time=02:26:40.56 bitrate=8342.3kbits/s speed=76.8x    frame=530168 fps=4607 q=-1.0 size= 9000960kB time=02:27:16.11 bitrate=8344.8kbits/s speed=76.8x    frame=532817 fps=4610 q=-1.0 size= 9041664kB time=02:28:00.26 bitrate=8340.9kbits/s speed=76.8x    frame=536211 fps=4619 q=-1.0 size= 9079808kB time=02:28:56.82 bitrate=8323.1kbits/s speed=  77x    frame=539234 fps=4625 q=-1.0 size= 9120512kB time=02:29:47.22 bitrate=8313.5kbits/s speed=77.1x    frame=542437 fps=4633 q=-1.0 size= 9161216kB time=02:30:40.59 bitrate=8301.3kbits/s speed=77.2x    frame=544298 fps=4629 q=-1.0 size= 9199872kB time=02:31:11.61 bitrate=8307.8kbits/s speed=77.2x    frame=547808 fps=4639 q=-1.0 size= 9241344kB time=02:32:10.11 bitrate=8291.8kbits/s speed=77.3x    frame=549862 fps=4637 q=-1.0 size= 9280768kB time=02:32:44.34 bitrate=8296.1kbits/s speed=77.3x    frame=552087 fps=4636 q=-1.0 size= 9320192kB time=02:33:21.42 bitrate=8297.7kbits/s speed=77.3x    frame=554607 fps=4638 q=-1.0 size= 9361664kB time=02:34:03.42 bitrate=8296.8kbits/s speed=77.3x    frame=556759 fps=4636 q=-1.0 size= 9403392kB time=02:34:39.29 bitrate=8301.6kbits/s speed=77.3x    frame=559065 fps=4636 q=-1.0 size= 9445120kB time=02:35:17.73 bitrate=8304.0kbits/s speed=77.3x    frame=561538 fps=4638 q=-1.0 size= 9487616kB time=02:35:58.95 bitrate=8304.6kbits/s speed=77.3x    frame=563447 fps=4634 q=-1.0 size= 9523968kB time=02:36:30.76 bitrate=8308.2kbits/s speed=77.2x    frame=566601 fps=4641 q=-1.0 size= 9565952kB time=02:37:23.32 bitrate=8298.4kbits/s speed=77.4x    frame=568894 fps=4641 q=-1.0 size= 9604864kB time=02:38:01.55 bitrate=8298.5kbits/s speed=77.3x    frame=571149 fps=4640 q=-1.0 size= 9644544kB time=02:38:39.12 bitrate=8299.9kbits/s speed=77.3x    frame=576593 fps=4666 q=-1.0 size= 9680640kB time=02:40:09.87 bitrate=8252.3kbits/s speed=77.8x    frame=578432 fps=4662 q=-1.0 size= 9715968kB time=02:40:40.51 bitrate=8256.1kbits/s speed=77.7x    frame=580697 fps=4661 q=-1.0 size= 9757184kB time=02:41:18.26 bitrate=8258.8kbits/s speed=77.7x    frame=582988 fps=4661 q=-1.0 size= 9798912kB time=02:41:56.44 bitrate=8261.5kbits/s speed=77.7x    frame=585669 fps=4664 q=-1.0 size= 9833472kB time=02:42:41.13 bitrate=8252.7kbits/s speed=77.7x    frame=587849 fps=4662 q=-1.0 size= 9873408kB time=02:43:17.46 bitrate=8255.5kbits/s speed=77.7x    frame=589868 fps=4660 q=-1.0 size= 9912320kB time=02:43:51.11 bitrate=8259.7kbits/s speed=77.7x    frame=592154 fps=4659 q=-1.0 size= 9952512kB time=02:44:29.22 bitrate=8261.1kbits/s speed=77.7x    frame=595189 fps=4665 q=-1.0 size= 9991424kB time=02:45:19.80 bitrate=8251.1kbits/s speed=77.7x    frame=597025 fps=4661 q=-1.0 size=10027264kB time=02:45:50.39 bitrate=8255.3kbits/s speed=77.7x    frame=599356 fps=4661 q=-1.0 size=10068736kB time=02:46:29.24 bitrate=8257.2kbits/s speed=77.7x    frame=601859 fps=4662 q=-1.0 size=10112256kB time=02:47:10.96 bitrate=8258.4kbits/s speed=77.7x    frame=604647 fps=4666 q=-1.0 size=10153216kB time=02:47:57.44 bitrate=8253.6kbits/s speed=77.8x    frame=607141 fps=4667 q=-1.0 size=10196736kB time=02:48:38.99 bitrate=8254.9kbits/s speed=77.8x    frame=609093 fps=4664 q=-1.0 size=10234624kB time=02:49:11.52 bitrate=8259.1kbits/s speed=77.7x    frame=612162 fps=4670 q=-1.0 size=10275584kB time=02:50:02.67 bitrate=8250.5kbits/s speed=77.8x    frame=615075 fps=4674 q=-1.0 size=10316800kB time=02:50:51.22 bitrate=8244.4kbits/s speed=77.9x    frame=617081 fps=4672 q=-1.0 size=10356480kB time=02:51:24.67 bitrate=8249.2kbits/s speed=77.9x    frame=619313 fps=4671 q=-1.0 size=10397952kB time=02:52:01.87 bitrate=8252.4kbits/s speed=77.8x    frame=621272 fps=4668 q=-1.0 size=10438912kB time=02:52:34.51 bitrate=8258.8kbits/s speed=77.8x    frame=624867 fps=4677 q=-1.0 size=10475776kB time=02:53:34.44 bitrate=8240.2kbits/s speed=  78x    frame=629154 fps=4692 q=-1.0 size=10516480kB time=02:54:45.88 bitrate=8215.9kbits/s speed=78.2x    frame=632492 fps=4699 q=-1.0 size=10552064kB time=02:55:41.52 bitrate=8200.2kbits/s speed=78.3x    frame=636353 fps=4710 q=-1.0 size=10592256kB time=02:56:45.86 bitrate=8181.5kbits/s speed=78.5x    frame=639421 fps=4716 q=-1.0 size=10633216kB time=02:57:37.00 bitrate=8173.7kbits/s speed=78.6x    frame=642269 fps=4719 q=-1.0 size=10670080kB time=02:58:24.46 bitrate=8165.7kbits/s speed=78.7x    frame=646708 fps=4735 q=-1.0 size=10710016kB time=02:59:38.45 bitrate=8140.0kbits/s speed=78.9x    frame=649034 fps=4734 q=-1.0 size=10750720kB time=03:00:17.21 bitrate=8141.6kbits/s speed=78.9x    frame=651229 fps=4733 q=-1.0 size=10792448kB time=03:00:53.80 bitrate=8145.7kbits/s speed=78.9x    frame=653729 fps=4734 q=-1.0 size=10834176kB time=03:01:35.46 bitrate=8145.9kbits/s speed=78.9x    frame=655838 fps=4732 q=-1.0 size=10873088kB time=03:02:10.62 bitrate=8148.9kbits/s speed=78.9x    frame=658003 fps=4731 q=-1.0 size=10913280kB time=03:02:46.69 bitrate=8152.1kbits/s speed=78.8x    frame=660252 fps=4730 q=-1.0 size=10953472kB time=03:03:24.17 bitrate=8154.3kbits/s speed=78.8x    frame=662469 fps=4729 q=-1.0 size=10992128kB time=03:04:01.12 bitrate=8155.6kbits/s speed=78.8x    frame=665223 fps=4731 q=-1.0 size=11032576kB time=03:04:47.04 bitrate=8151.8kbits/s speed=78.9x    frame=667311 fps=4729 q=-1.0 size=11075072kB time=03:05:21.82 bitrate=8157.6kbits/s speed=78.8x    frame=669286 fps=4727 q=-1.0 size=11115264kB time=03:05:54.75 bitrate=8163.0kbits/s speed=78.8x    frame=671983 fps=4729 q=-1.0 size=11158784kB time=03:06:39.69 bitrate=8162.1kbits/s speed=78.8x    frame=674435 fps=4730 q=-1.0 size=11197696kB time=03:07:20.57 bitrate=8160.7kbits/s speed=78.8x    frame=676668 fps=4729 q=-1.0 size=11239680kB time=03:07:57.77 bitrate=8164.3kbits/s speed=78.8x    frame=678808 fps=4727 q=-1.0 size=11276800kB time=03:08:33.45 bitrate=8165.5kbits/s speed=78.8x    frame=680898 fps=4725 q=-1.0 size=11319808kB time=03:09:08.27 bitrate=8171.4kbits/s speed=78.8x    frame=682883 fps=4723 q=-1.0 size=11361024kB time=03:09:41.36 bitrate=8177.4kbits/s speed=78.7x    frame=684951 fps=4721 q=-1.0 size=11401216kB time=03:10:15.83 bitrate=8181.5kbits/s speed=78.7x    frame=686676 fps=4716 q=-1.0 size=11437056kB time=03:10:44.57 bitrate=8186.6kbits/s speed=78.6x    frame=689642 fps=4720 q=-1.0 size=11477504kB time=03:11:34.01 bitrate=8180.2kbits/s speed=78.7x    frame=691828 fps=4719 q=-1.0 size=11516416kB time=03:12:10.45 bitrate=8182.0kbits/s speed=78.7x    frame=694224 fps=4719 q=-1.0 size=11559680kB time=03:12:50.39 bitrate=8184.4kbits/s speed=78.7x    frame=696115 fps=4716 q=-1.0 size=11599104kB time=03:13:21.89 bitrate=8190.0kbits/s speed=78.6x    frame=698812 fps=4719 q=-1.0 size=11636480kB time=03:14:06.84 bitrate=8184.7kbits/s speed=78.6x    frame=701368 fps=4720 q=-1.0 size=11678208kB time=03:14:49.44 bitrate=8184.1kbits/s speed=78.7x    frame=703878 fps=4721 q=-1.0 size=11717632kB time=03:15:31.27 bitrate=8182.5kbits/s speed=78.7x    frame=709358 fps=4742 q=-1.0 size=11755008kB time=03:17:02.61 bitrate=8145.2kbits/s speed=  79x    frame=711540 fps=4740 q=-1.0 size=11796736kB time=03:17:38.97 bitrate=8149.0kbits/s speed=  79x    frame=713600 fps=4738 q=-1.0 size=11834880kB time=03:18:13.31 bitrate=8151.8kbits/s speed=  79x    frame=716301 fps=4740 q=-1.0 size=11876608kB time=03:18:58.32 bitrate=8149.6kbits/s speed=  79x    frame=719920 fps=4749 q=-1.0 size=11912448kB time=03:19:58.64 bitrate=8133.1kbits/s speed=79.1x    frame=722022 fps=4747 q=-1.0 size=11948032kB time=03:20:33.68 bitrate=8133.7kbits/s speed=79.1x    frame=726368 fps=4760 q=-1.0 size=11980800kB time=03:21:46.11 bitrate=8107.2kbits/s speed=79.3x    frame=731032 fps=4775 q=-1.0 size=12015872kB time=03:23:03.84 bitrate=8079.1kbits/s speed=79.6x    frame=733825 fps=4777 q=-1.0 size=12052992kB time=03:23:50.39 bitrate=8073.2kbits/s speed=79.6x    frame=736835 fps=4781 q=-1.0 size=12090368kB time=03:24:40.56 bitrate=8065.1kbits/s speed=79.7x    frame=740861 fps=4792 q=-1.0 size=12128512kB time=03:25:47.66 bitrate=8046.6kbits/s speed=79.9x    frame=743919 fps=4796 q=-1.0 size=12168448kB time=03:26:38.63 bitrate=8039.9kbits/s speed=79.9x    frame=746210 fps=4795 q=-1.0 size=12208640kB time=03:27:16.81 bitrate=8041.7kbits/s speed=79.9x    frame=748401 fps=4794 q=-1.0 size=12246016kB time=03:27:53.32 bitrate=8042.7kbits/s speed=79.9x    frame=750839 fps=4794 q=-1.0 size=12286720kB time=03:28:33.96 bitrate=8043.2kbits/s speed=79.9x    frame=753113 fps=4794 q=-1.0 size=12326400kB time=03:29:11.86 bitrate=8044.9kbits/s speed=79.9x    frame=755474 fps=4793 q=-1.0 size=12368896kB time=03:29:51.21 bitrate=8047.4kbits/s speed=79.9x    frame=757807 fps=4793 q=-1.0 size=12410368kB time=03:30:30.10 bitrate=8049.5kbits/s speed=79.9x    frame=759738 fps=4790 q=-1.0 size=12448512kB time=03:31:02.29 bitrate=8053.7kbits/s speed=79.8x    frame=761961 fps=4789 q=-1.0 size=12489728kB time=03:31:39.32 bitrate=8056.8kbits/s speed=79.8x    frame=764160 fps=4788 q=-1.0 size=12531200kB time=03:32:15.97 bitrate=8060.3kbits/s speed=79.8x    frame=766238 fps=4786 q=-1.0 size=12569344kB time=03:32:50.62 bitrate=8062.9kbits/s speed=79.8x    frame=768375 fps=4784 q=-1.0 size=12609280kB time=03:33:26.23 bitrate=8066.0kbits/s speed=79.7x    frame=770563 fps=4783 q=-1.0 size=12649984kB time=03:34:02.71 bitrate=8069.1kbits/s speed=79.7x    frame=772628 fps=4781 q=-1.0 size=12690944kB time=03:34:37.12 bitrate=8073.6kbits/s speed=79.7x    frame=775034 fps=4781 q=-1.0 size=12733696kB time=03:35:17.21 bitrate=8075.6kbits/s speed=79.7x    frame=777305 fps=4780 q=-1.0 size=12774144kB time=03:35:55.07 bitrate=8077.6kbits/s speed=79.7x    frame=779488 fps=4779 q=-1.0 size=12815872kB time=03:36:31.44 bitrate=8081.3kbits/s speed=79.6x    frame=781374 fps=4776 q=-1.0 size=12852736kB time=03:37:02.89 bitrate=8085.0kbits/s speed=79.6x    frame=783539 fps=4774 q=-1.0 size=12891648kB time=03:37:38.96 bitrate=8087.0kbits/s speed=79.6x    frame=785772 fps=4773 q=-1.0 size=12933120kB time=03:38:16.19 bitrate=8090.0kbits/s speed=79.6x    frame=787841 fps=4772 q=-1.0 size=12973312kB time=03:38:50.66 bitrate=8093.8kbits/s speed=79.5x    frame=790021 fps=4770 q=-1.0 size=13014528kB time=03:39:26.99 bitrate=8097.1kbits/s speed=79.5x    frame=792254 fps=4769 q=-1.0 size=13057280kB time=03:40:04.21 bitrate=8100.8kbits/s speed=79.5x    frame=794401 fps=4768 q=-1.0 size=13099520kB time=03:40:40.00 bitrate=8105.1kbits/s speed=79.5x    frame=796753 fps=4768 q=-1.0 size=13138688kB time=03:41:19.21 bitrate=8105.3kbits/s speed=79.5x    frame=799118 fps=4768 q=-1.0 size=13179648kB time=03:41:58.61 bitrate=8106.5kbits/s speed=79.5x    frame=801429 fps=4767 q=-1.0 size=13217792kB time=03:42:37.12 bitrate=8106.5kbits/s speed=79.5x    frame=804166 fps=4769 q=-1.0 size=13259264kB time=03:43:22.74 bitrate=8104.3kbits/s speed=79.5x    frame=806569 fps=4769 q=-1.0 size=13300992kB time=03:44:02.79 bitrate=8105.6kbits/s speed=79.5x    frame=809059 fps=4770 q=-1.0 size=13340928kB time=03:44:44.29 bitrate=8104.9kbits/s speed=79.5x    frame=811631 fps=4771 q=-1.0 size=13381632kB time=03:45:27.16 bitrate=8103.9kbits/s speed=79.5x    frame=814025 fps=4771 q=-1.0 size=13422080kB time=03:46:07.06 bitrate=8104.5kbits/s speed=79.5x    frame=816560 fps=4772 q=-1.0 size=13463808kB time=03:46:49.32 bitrate=8104.4kbits/s speed=79.5x    frame=818830 fps=4771 q=-1.0 size=13502976kB time=03:47:27.14 bitrate=8105.5kbits/s speed=79.5x    frame=821332 fps=4772 q=-1.0 size=13544448kB time=03:48:08.84 bitrate=8105.6kbits/s speed=79.5x    frame=823666 fps=4772 q=-1.0 size=13583616kB time=03:48:47.74 bitrate=8106.0kbits/s speed=79.5x    frame=825719 fps=4770 q=-1.0 size=13617664kB time=03:49:21.96 bitrate=8106.1kbits/s speed=79.5x    frame=827862 fps=4768 q=-1.0 size=13654784kB time=03:49:57.67 bitrate=8107.2kbits/s speed=79.5x    frame=829973 fps=4767 q=-1.0 size=13694464kB time=03:50:32.87 bitrate=8110.0kbits/s speed=79.4x    frame=831898 fps=4764 q=-1.0 size=13727232kB time=03:51:04.96 bitrate=8110.6kbits/s speed=79.4x    frame=834517 fps=4765 q=-1.0 size=13765632kB time=03:51:48.60 bitrate=8107.8kbits/s speed=79.4x    frame=836546 fps=4763 q=-1.0 size=13801984kB time=03:52:22.42 bitrate=8109.5kbits/s speed=79.4x    frame=838778 fps=4763 q=-1.0 size=13838080kB time=03:52:59.61 bitrate=8109.1kbits/s speed=79.4x    frame=841257 fps=4763 q=-1.0 size=13879040kB time=03:53:40.92 bitrate=8109.1kbits/s speed=79.4x    frame=843462 fps=4762 q=-1.0 size=13915648kB time=03:54:17.67 bitrate=8109.2kbits/s speed=79.4x    frame=846235 fps=4764 q=-1.0 size=13957888kB time=03:55:03.89 bitrate=8107.2kbits/s speed=79.4x    frame=848543 fps=4764 q=-1.0 size=13998592kB time=03:55:42.36 bitrate=8108.7kbits/s speed=79.4x    frame=851255 fps=4766 q=-1.0 size=14038272kB time=03:56:27.56 bitrate=8105.8kbits/s speed=79.4x    frame=855347 fps=4775 q=-1.0 size=14078976kB time=03:57:35.76 bitrate=8090.4kbits/s speed=79.6x    frame=859947 fps=4788 q=-1.0 size=14117632kB time=03:58:52.42 bitrate=8069.2kbits/s speed=79.8x    frame=863902 fps=4796 q=-1.0 size=14159104kB time=03:59:58.35 bitrate=8055.9kbits/s speed=79.9x    frame=865998 fps=4795 q=-1.0 size=14201344kB time=04:00:33.27 bitrate=8060.4kbits/s speed=79.9x    frame=867791 fps=4791 q=-1.0 size=14238720kB time=04:01:03.16 bitrate=8064.9kbits/s speed=79.9x    frame=869868 fps=4789 q=-1.0 size=14280448kB time=04:01:37.77 bitrate=8069.2kbits/s speed=79.8x    frame=872202 fps=4789 q=-1.0 size=14321920kB time=04:02:16.68 bitrate=8071.0kbits/s speed=79.8x    frame=874392 fps=4788 q=-1.0 size=14364416kB time=04:02:53.18 bitrate=8074.6kbits/s speed=79.8x    frame=877798 fps=4793 q=-1.0 size=14405376kB time=04:03:49.95 bitrate=8066.2kbits/s speed=79.9x    frame=880624 fps=4796 q=-1.0 size=14441728kB time=04:04:37.05 bitrate=8060.7kbits/s speed=79.9x    frame=883191 fps=4797 q=-1.0 size=14483712kB time=04:05:19.82 bitrate=8060.6kbits/s speed=79.9x    frame=886080 fps=4799 q=-1.0 size=14524160kB time=04:06:07.97 bitrate=8056.8kbits/s speed=  80x    frame=888636 fps=4800 q=-1.0 size=14561536kB time=04:06:50.58 bitrate=8054.2kbits/s speed=  80x    frame=891031 fps=4800 q=-1.0 size=14602240kB time=04:07:30.49 bitrate=8055.1kbits/s speed=  80x    frame=893465 fps=4800 q=-1.0 size=14643200kB time=04:08:11.07 bitrate=8055.6kbits/s speed=  80x    frame=895983 fps=4801 q=-1.0 size=14684672kB time=04:08:53.02 bitrate=8055.8kbits/s speed=  80x    frame=898641 fps=4802 q=-1.0 size=14727424kB time=04:09:37.32 bitrate=8055.3kbits/s speed=  80x    frame=901264 fps=4804 q=-1.0 size=14767616kB time=04:10:21.04 bitrate=8053.8kbits/s speed=80.1x    frame=903736 fps=4804 q=-1.0 size=14808320kB time=04:11:02.25 bitrate=8053.9kbits/s speed=80.1x    frame=905985 fps=4803 q=-1.0 size=14849536kB time=04:11:39.72 bitrate=8056.3kbits/s speed=80.1x    frame=908043 fps=4801 q=-1.0 size=14886400kB time=04:12:14.03 bitrate=8058.0kbits/s speed=  80x    frame=910298 fps=4800 q=-1.0 size=14926080kB time=04:12:51.61 bitrate=8059.4kbits/s speed=  80x    frame=912393 fps=4799 q=-1.0 size=14966016kB time=04:13:26.52 bitrate=8062.4kbits/s speed=  80x    frame=914608 fps=4798 q=-1.0 size=15005184kB time=04:14:03.44 bitrate=8064.0kbits/s speed=  80x    frame=917491 fps=4800 q=-1.0 size=15046144kB time=04:14:51.49 bitrate=8060.6kbits/s speed=  80x    frame=919522 fps=4798 q=-1.0 size=15085056kB time=04:15:25.34 bitrate=8063.6kbits/s speed=  80x    frame=921511 fps=4796 q=-1.0 size=15122944kB time=04:15:58.49 bitrate=8066.4kbits/s speed=79.9x    frame=925414 fps=4804 q=-1.0 size=15161344kB time=04:17:03.55 bitrate=8052.7kbits/s speed=80.1x    frame=928204 fps=4806 q=-1.0 size=15198720kB time=04:17:50.05 bitrate=8048.3kbits/s speed=80.1x    frame=930585 fps=4806 q=-1.0 size=15238144kB time=04:18:29.72 bitrate=8048.6kbits/s speed=80.1x    frame=933073 fps=4806 q=-1.0 size=15280128kB time=04:19:11.19 bitrate=8049.2kbits/s speed=80.1x    frame=934844 fps=4803 q=-1.0 size=15314944kB time=04:19:40.71 bitrate=8052.3kbits/s speed=80.1x    frame=936646 fps=4800 q=-1.0 size=15349504kB time=04:20:10.74 bitrate=8054.9kbits/s speed=  80x    frame=939061 fps=4800 q=-1.0 size=15390464kB time=04:20:50.99 bitrate=8055.6kbits/s speed=  80x    frame=941379 fps=4800 q=-1.0 size=15432448kB time=04:21:29.62 bitrate=8057.7kbits/s speed=  80x    frame=943747 fps=4800 q=-1.0 size=15468800kB time=04:22:09.11 bitrate=8056.4kbits/s speed=  80x    frame=947118 fps=4804 q=-1.0 size=15510272kB time=04:23:05.27 bitrate=8049.3kbits/s speed=80.1x    frame=950131 fps=4808 q=-1.0 size=15548928kB time=04:23:55.49 bitrate=8043.8kbits/s speed=80.1x    frame=952255 fps=4806 q=-1.0 size=15590144kB time=04:24:30.89 bitrate=8047.1kbits/s speed=80.1x    frame=954486 fps=4805 q=-1.0 size=15632640kB time=04:25:08.07 bitrate=8050.2kbits/s speed=80.1x    frame=958229 fps=4812 q=-1.0 size=15670272kB time=04:26:10.46 bitrate=8038.0kbits/s speed=80.2x    frame=960344 fps=4810 q=-1.0 size=15712768kB time=04:26:45.71 bitrate=8042.1kbits/s speed=80.2x    frame=963130 fps=4812 q=-1.0 size=15755776kB time=04:27:32.16 bitrate=8040.7kbits/s speed=80.2x    frame=964930 fps=4809 q=-1.0 size=15792128kB time=04:28:02.14 bitrate=8044.3kbits/s speed=80.2x    frame=967840 fps=4812 q=-1.0 size=15834368kB time=04:28:50.64 bitrate=8041.5kbits/s speed=80.2x    frame=969765 fps=4809 q=-1.0 size=15873280kB time=04:29:22.73 bitrate=8045.3kbits/s speed=80.2x    frame=971920 fps=4808 q=-1.0 size=15915008kB time=04:29:58.64 bitrate=8048.6kbits/s speed=80.1x    frame=974030 fps=4807 q=-1.0 size=15956736kB time=04:30:33.81 bitrate=8052.2kbits/s speed=80.1x    frame=975901 fps=4804 q=-1.0 size=15994624kB time=04:31:04.99 bitrate=8055.8kbits/s speed=80.1x    frame=978013 fps=4803 q=-1.0 size=16034816kB time=04:31:40.19 bitrate=8058.6kbits/s speed=  80x    frame=980272 fps=4802 q=-1.0 size=16078592kB time=04:32:17.85 bitrate=8062.0kbits/s speed=  80x    frame=982307 fps=4800 q=-1.0 size=16119808kB time=04:32:51.76 bitrate=8065.9kbits/s speed=  80x    frame=984736 fps=4800 q=-1.0 size=16164352kB time=04:33:32.24 bitrate=8068.3kbits/s speed=  80x    frame=986794 fps=4799 q=-1.0 size=16204032kB time=04:34:06.54 bitrate=8071.2kbits/s speed=  80x    frame=988815 fps=4797 q=-1.0 size=16243200kB time=04:34:40.23 bitrate=8074.2kbits/s speed=79.9x    frame=990949 fps=4796 q=-1.0 size=16285184kB time=04:35:15.79 bitrate=8077.6kbits/s speed=79.9x    frame=992810 fps=4793 q=-1.0 size=16323072kB time=04:35:46.81 bitrate=8081.2kbits/s speed=79.9x    frame=994798 fps=4791 q=-1.0 size=16363008kB time=04:36:19.94 bitrate=8084.8kbits/s speed=79.8x    frame=998711 fps=4798 q=-1.0 size=16402432kB time=04:37:25.16 bitrate=8072.5kbits/s speed=  80x    frame=1000810 fps=4797 q=-1.0 size=16443904kB time=04:38:00.15 bitrate=8076.0kbits/s speed=79.9x    frame=1003078 fps=4796 q=-1.0 size=16487168kB time=04:38:37.95 bitrate=8078.9kbits/s speed=79.9x    frame=1005260 fps=4795 q=-1.0 size=16529920kB time=04:39:14.32 bitrate=8082.3kbits/s speed=79.9x    frame=1007458 fps=4794 q=-1.0 size=16572928kB time=04:39:50.95 bitrate=8085.6kbits/s speed=79.9x    frame=1009753 fps=4794 q=-1.0 size=16616704kB time=04:40:29.20 bitrate=8088.6kbits/s speed=79.9x    frame=1011828 fps=4792 q=-1.0 size=16656128kB time=04:41:03.78 bitrate=8091.1kbits/s speed=79.9x    frame=1014340 fps=4793 q=-1.0 size=16700160kB time=04:41:45.64 bitrate=8092.4kbits/s speed=79.9x    frame=1016542 fps=4792 q=-1.0 size=16743424kB time=04:42:22.35 bitrate=8095.8kbits/s speed=79.9x    frame=1018496 fps=4790 q=-1.0 size=16781312kB time=04:42:54.91 bitrate=8098.6kbits/s speed=79.8x    frame=1020815 fps=4789 q=-1.0 size=16825600kB time=04:43:33.56 bitrate=8101.5kbits/s speed=79.8x    frame=1022694 fps=4787 q=-1.0 size=16862976kB time=04:44:04.88 bitrate=8104.6kbits/s speed=79.8x    frame=1024993 fps=4786 q=-1.0 size=16907776kB time=04:44:43.20 bitrate=8107.9kbits/s speed=79.8x    frame=1026869 fps=4784 q=-1.0 size=16945152kB time=04:45:14.47 bitrate=8111.0kbits/s speed=79.7x    frame=1029090 fps=4783 q=-1.0 size=16989184kB time=04:45:51.47 bitrate=8114.5kbits/s speed=79.7x    frame=1031315 fps=4782 q=-1.0 size=17032192kB time=04:46:28.56 bitrate=8117.5kbits/s speed=79.7x    frame=1033231 fps=4780 q=-1.0 size=17070080kB time=04:47:00.50 bitrate=8120.4kbits/s speed=79.7x    frame=1035325 fps=4779 q=-1.0 size=17112576kB time=04:47:35.40 bitrate=8124.2kbits/s speed=79.6x    frame=1037681 fps=4779 q=-1.0 size=17156608kB time=04:48:14.67 bitrate=8126.6kbits/s speed=79.6x    frame=1039607 fps=4777 q=-1.0 size=17194752kB time=04:48:46.76 bitrate=8129.6kbits/s speed=79.6x    frame=1041844 fps=4776 q=-1.0 size=17238784kB time=04:49:24.05 bitrate=8132.9kbits/s speed=79.6x    frame=1043831 fps=4774 q=-1.0 size=17277696kB time=04:49:57.16 bitrate=8135.7kbits/s speed=79.6x    frame=1046036 fps=4773 q=-1.0 size=17320960kB time=04:50:33.91 bitrate=8138.9kbits/s speed=79.6x    frame=1048274 fps=4773 q=-1.0 size=17364992kB time=04:51:11.21 bitrate=8142.2kbits/s speed=79.5x    frame=1050336 fps=4771 q=-1.0 size=17404416kB time=04:51:45.57 bitrate=8144.7kbits/s speed=79.5x    frame=1052481 fps=4770 q=-1.0 size=17447680kB time=04:52:21.32 bitrate=8148.3kbits/s speed=79.5x    frame=1054499 fps=4768 q=-1.0 size=17489408kB time=04:52:54.97 bitrate=8152.1kbits/s speed=79.5x    frame=1057518 fps=4771 q=-1.0 size=17531136kB time=04:53:45.28 bitrate=8148.2kbits/s speed=79.5x    frame=1061696 fps=4779 q=-1.0 size=17572864kB time=04:54:54.91 bitrate=8135.5kbits/s speed=79.7x    frame=1064618 fps=4782 q=-1.0 size=17613312kB time=04:55:43.61 bitrate=8131.8kbits/s speed=79.7x    frame=1067489 fps=4784 q=-1.0 size=17654784kB time=04:56:31.46 bitrate=8129.1kbits/s speed=79.7x    frame=1069789 fps=4783 q=-1.0 size=17691136kB time=04:57:09.79 bitrate=8128.3kbits/s speed=79.7x    frame=1072256 fps=4784 q=-1.0 size=17732864kB time=04:57:50.91 bitrate=8128.7kbits/s speed=79.7x    frame=1074671 fps=4784 q=-1.0 size=17772288kB time=04:58:31.16 bitrate=8128.5kbits/s speed=79.7x    frame=1076977 fps=4783 q=-1.0 size=17811200kB time=04:59:09.59 bitrate=8128.8kbits/s speed=79.7x    frame=1079184 fps=4783 q=-1.0 size=17848832kB time=04:59:46.37 bitrate=8129.4kbits/s speed=79.7x    frame=1081523 fps=4782 q=-1.0 size=17891584kB time=05:00:25.36 bitrate=8131.2kbits/s speed=79.7x    frame=1084273 fps=4784 q=-1.0 size=17930496kB time=05:01:11.21 bitrate=8128.2kbits/s speed=79.7x    frame=1087070 fps=4786 q=-1.0 size=17973760kB time=05:01:57.81 bitrate=8126.9kbits/s speed=79.8x    frame=1089425 fps=4785 q=-1.0 size=18014976kB time=05:02:37.07 bitrate=8127.9kbits/s speed=79.8x    frame=1091447 fps=4784 q=-1.0 size=18053632kB time=05:03:10.76 bitrate=8130.2kbits/s speed=79.7x    frame=1093553 fps=4783 q=-1.0 size=18095360kB time=05:03:45.87 bitrate=8133.3kbits/s speed=79.7x    frame=1095703 fps=4782 q=-1.0 size=18137088kB time=05:04:21.69 bitrate=8136.1kbits/s speed=79.7x    frame=1097680 fps=4780 q=-1.0 size=18176256kB time=05:04:54.64 bitrate=8139.0kbits/s speed=79.7x    frame=1099902 fps=4779 q=-1.0 size=18216960kB time=05:05:31.67 bitrate=8140.7kbits/s speed=79.6x    frame=1102017 fps=4778 q=-1.0 size=18257408kB time=05:06:06.92 bitrate=8143.2kbits/s speed=79.6x    frame=1105064 fps=4781 q=-1.0 size=18300928kB time=05:06:57.71 bitrate=8140.1kbits/s speed=79.7x    frame=1107201 fps=4780 q=-1.0 size=18343424kB time=05:07:33.33 bitrate=8143.2kbits/s speed=79.7x    frame=1109230 fps=4778 q=-1.0 size=18382848kB time=05:08:07.14 bitrate=8145.8kbits/s speed=79.6x    frame=1111597 fps=4778 q=-1.0 size=18425856kB time=05:08:46.59 bitrate=8147.5kbits/s speed=79.6x    frame=1113729 fps=4777 q=-1.0 size=18466560kB time=05:09:22.13 bitrate=8149.8kbits/s speed=79.6x    frame=1115942 fps=4776 q=-1.0 size=18507008kB time=05:09:59.01 bitrate=8151.5kbits/s speed=79.6x    frame=1120016 fps=4783 q=-1.0 size=18547456kB time=05:11:06.91 bitrate=8139.6kbits/s speed=79.7x    frame=1122564 fps=4784 q=-1.0 size=18585088kB time=05:11:49.37 bitrate=8137.6kbits/s speed=79.7x    frame=1124647 fps=4783 q=-1.0 size=18628352kB time=05:12:24.09 bitrate=8141.4kbits/s speed=79.7x    frame=1126592 fps=4781 q=-1.0 size=18668800kB time=05:12:56.51 bitrate=8145.0kbits/s speed=79.7x    frame=1128495 fps=4779 q=-1.0 size=18708224kB time=05:13:28.23 bitrate=8148.4kbits/s speed=79.6x    frame=1130489 fps=4777 q=-1.0 size=18749952kB time=05:14:01.47 bitrate=8152.2kbits/s speed=79.6x    frame=1132424 fps=4775 q=-1.0 size=18790400kB time=05:14:33.71 bitrate=8155.8kbits/s speed=79.6x    frame=1134433 fps=4773 q=-1.0 size=18831872kB time=05:15:07.19 bitrate=8159.4kbits/s speed=79.6x    frame=1136504 fps=4772 q=-1.0 size=18874880kB time=05:15:41.71 bitrate=8163.1kbits/s speed=79.5x    frame=1138412 fps=4770 q=-1.0 size=18914816kB time=05:16:13.51 bitrate=8166.7kbits/s speed=79.5x    frame=1140215 fps=4768 q=-1.0 size=18952192kB time=05:16:43.56 bitrate=8169.9kbits/s speed=79.5x    frame=1142256 fps=4766 q=-1.0 size=18994688kB time=05:17:17.59 bitrate=8173.5kbits/s speed=79.4x    frame=1144152 fps=4764 q=-1.0 size=19034112kB time=05:17:49.17 bitrate=8176.9kbits/s speed=79.4x    frame=1145818 fps=4761 q=-1.0 size=19068928kB time=05:18:16.94 bitrate=8180.0kbits/s speed=79.4x    frame=1147765 fps=4759 q=-1.0 size=19109120kB time=05:18:49.40 bitrate=8183.3kbits/s speed=79.3x    frame=1149710 fps=4758 q=-1.0 size=19149568kB time=05:19:21.81 bitrate=8186.8kbits/s speed=79.3x    frame=1151581 fps=4755 q=-1.0 size=19188736kB time=05:19:52.99 bitrate=8190.2kbits/s speed=79.3x    frame=1153702 fps=4754 q=-1.0 size=19231232kB time=05:20:28.35 bitrate=8193.2kbits/s speed=79.2x    frame=1155578 fps=4752 q=-1.0 size=19270144kB time=05:20:59.61 bitrate=8196.5kbits/s speed=79.2x    frame=1157360 fps=4750 q=-1.0 size=19307008kB time=05:21:29.32 bitrate=8199.5kbits/s speed=79.2x    frame=1159316 fps=4748 q=-1.0 size=19347968kB time=05:22:01.91 bitrate=8203.0kbits/s speed=79.1x    frame=1161113 fps=4746 q=-1.0 size=19385088kB time=05:22:31.87 bitrate=8206.1kbits/s speed=79.1x    frame=1163186 fps=4745 q=-1.0 size=19428096kB time=05:23:06.41 bitrate=8209.6kbits/s speed=79.1x    frame=1164976 fps=4742 q=-1.0 size=19465472kB time=05:23:36.25 bitrate=8212.8kbits/s speed=  79x    frame=1167075 fps=4741 q=-1.0 size=19509248kB time=05:24:11.22 bitrate=8216.4kbits/s speed=  79x    frame=1169056 fps=4739 q=-1.0 size=19550720kB time=05:24:44.24 bitrate=8219.9kbits/s speed=  79x    frame=1170919 fps=4737 q=-1.0 size=19588864kB time=05:25:15.30 bitrate=8222.9kbits/s speed=  79x    frame=1172850 fps=4736 q=-1.0 size=19629312kB time=05:25:47.47 bitrate=8226.3kbits/s speed=78.9x    frame=1174716 fps=4734 q=-1.0 size=19667968kB time=05:26:18.58 bitrate=8229.4kbits/s speed=78.9x    frame=1176620 fps=4732 q=-1.0 size=19707648kB time=05:26:50.32 bitrate=8232.7kbits/s speed=78.9x    frame=1178704 fps=4731 q=-1.0 size=19750912kB time=05:27:25.05 bitrate=8236.1kbits/s speed=78.8x    frame=1180479 fps=4728 q=-1.0 size=19787776kB time=05:27:54.62 bitrate=8239.1kbits/s speed=78.8x    frame=1182534 fps=4727 q=-1.0 size=19830528kB time=05:28:28.87 bitrate=8242.6kbits/s speed=78.8x    frame=1184463 fps=4725 q=-1.0 size=19870976kB time=05:29:01.02 bitrate=8245.9kbits/s speed=78.8x    frame=1186499 fps=4724 q=-1.0 size=19910912kB time=05:29:34.96 bitrate=8248.3kbits/s speed=78.7x    frame=1188608 fps=4723 q=-1.0 size=19954944kB time=05:30:10.11 bitrate=8251.9kbits/s speed=78.7x    frame=1190584 fps=4721 q=-1.0 size=19995904kB time=05:30:43.05 bitrate=8255.1kbits/s speed=78.7x    frame=1192605 fps=4720 q=-1.0 size=20038144kB time=05:31:16.72 bitrate=8258.5kbits/s speed=78.7x    frame=1194620 fps=4719 q=-1.0 size=20079872kB time=05:31:50.31 bitrate=8261.8kbits/s speed=78.6x    frame=1196528 fps=4717 q=-1.0 size=20119552kB time=05:32:22.12 bitrate=8264.9kbits/s speed=78.6x    frame=1198509 fps=4715 q=-1.0 size=20160768kB time=05:32:55.12 bitrate=8268.1kbits/s speed=78.6x    frame=1200207 fps=4713 q=-1.0 size=20196096kB time=05:33:23.42 bitrate=8270.9kbits/s speed=78.5x    frame=1202059 fps=4711 q=-1.0 size=20234496kB time=05:33:54.29 bitrate=8273.9kbits/s speed=78.5x    frame=1204007 fps=4709 q=-1.0 size=20274944kB time=05:34:26.77 bitrate=8277.0kbits/s speed=78.5x    frame=1205891 fps=4707 q=-1.0 size=20314368kB time=05:34:58.16 bitrate=8280.1kbits/s speed=78.5x    frame=1207751 fps=4705 q=-1.0 size=20352768kB time=05:35:29.17 bitrate=8283.0kbits/s speed=78.4x    frame=1209758 fps=4704 q=-1.0 size=20394752kB time=05:36:02.61 bitrate=8286.3kbits/s speed=78.4x    frame=1211507 fps=4702 q=-1.0 size=20430848kB time=05:36:31.76 bitrate=8289.0kbits/s speed=78.4x    frame=1213484 fps=4700 q=-1.0 size=20472064kB time=05:37:04.72 bitrate=8292.2kbits/s speed=78.3x    frame=1215352 fps=4698 q=-1.0 size=20511232kB time=05:37:35.84 bitrate=8295.3kbits/s speed=78.3x    frame=1217310 fps=4697 q=-1.0 size=20551680kB time=05:38:08.47 bitrate=8298.3kbits/s speed=78.3x    frame=1219303 fps=4696 q=-1.0 size=20593152kB time=05:38:41.70 bitrate=8301.4kbits/s speed=78.3x    frame=1221291 fps=4694 q=-1.0 size=20633088kB time=05:39:14.82 bitrate=8304.0kbits/s speed=78.2x    frame=1223279 fps=4693 q=-1.0 size=20673792kB time=05:39:47.96 bitrate=8306.8kbits/s speed=78.2x    frame=1225359 fps=4692 q=-1.0 size=20717056kB time=05:40:22.62 bitrate=8310.1kbits/s speed=78.2x    frame=1227082 fps=4689 q=-1.0 size=20752896kB time=05:40:51.34 bitrate=8312.8kbits/s speed=78.2x    frame=1229103 fps=4688 q=-1.0 size=20794880kB time=05:41:25.02 bitrate=8315.9kbits/s speed=78.1x    frame=1231069 fps=4687 q=-1.0 size=20835840kB time=05:41:57.80 bitrate=8319.0kbits/s speed=78.1x    frame=1233090 fps=4685 q=-1.0 size=20877824kB time=05:42:31.48 bitrate=8322.1kbits/s speed=78.1x    frame=1235078 fps=4684 q=-1.0 size=20919296kB time=05:43:04.61 bitrate=8325.2kbits/s speed=78.1x    frame=1236957 fps=4682 q=-1.0 size=20957696kB time=05:43:35.93 bitrate=8327.8kbits/s speed=  78x    frame=1239046 fps=4681 q=-1.0 size=21000960kB time=05:44:10.74 bitrate=8330.9kbits/s speed=  78x    frame=1241153 fps=4680 q=-1.0 size=21044736kB time=05:44:45.86 bitrate=8334.1kbits/s speed=  78x    frame=1242958 fps=4678 q=-1.0 size=21082112kB time=05:45:15.94 bitrate=8336.8kbits/s speed=  78x    frame=1245066 fps=4678 q=-1.0 size=21126144kB time=05:45:51.08 bitrate=8340.1kbits/s speed=  78x    frame=1247082 fps=4676 q=-1.0 size=21168128kB time=05:46:24.67 bitrate=8343.1kbits/s speed=77.9x    frame=1249224 fps=4676 q=-1.0 size=21212928kB time=05:47:00.37 bitrate=8346.5kbits/s speed=77.9x    frame=1251276 fps=4674 q=-1.0 size=21255424kB time=05:47:34.57 bitrate=8349.5kbits/s speed=77.9x    frame=1253120 fps=4673 q=-1.0 size=21293568kB time=05:48:05.31 bitrate=8352.1kbits/s speed=77.9x    frame=1255146 fps=4671 q=-1.0 size=21335808kB time=05:48:39.07 bitrate=8355.2kbits/s speed=77.9x    frame=1257233 fps=4671 q=-1.0 size=21379328kB time=05:49:13.86 bitrate=8358.3kbits/s speed=77.8x    frame=1259253 fps=4669 q=-1.0 size=21421312kB time=05:49:47.54 bitrate=8361.3kbits/s speed=77.8x    frame=1261349 fps=4668 q=-1.0 size=21464576kB time=05:50:22.46 bitrate=8364.3kbits/s speed=77.8x    frame=1263137 fps=4666 q=-1.0 size=21501952kB time=05:50:52.26 bitrate=8367.0kbits/s speed=77.8x    frame=1265266 fps=4666 q=-1.0 size=21546240kB time=05:51:27.74 bitrate=8370.1kbits/s speed=77.8x    frame=1267219 fps=4664 q=-1.0 size=21586944kB time=05:52:00.29 bitrate=8373.0kbits/s speed=77.7x    frame=1269097 fps=4663 q=-1.0 size=21625856kB time=05:52:31.59 bitrate=8375.7kbits/s speed=77.7x    frame=1271128 fps=4662 q=-1.0 size=21668096kB time=05:53:05.45 bitrate=8378.6kbits/s speed=77.7x    frame=1273085 fps=4660 q=-1.0 size=21707264kB time=05:53:38.06 bitrate=8380.9kbits/s speed=77.7x    frame=1274951 fps=4658 q=-1.0 size=21745920kB time=05:54:09.17 bitrate=8383.5kbits/s speed=77.6x    frame=1277012 fps=4657 q=-1.0 size=21788928kB time=05:54:43.52 bitrate=8386.5kbits/s speed=77.6x    frame=1278919 fps=4656 q=-1.0 size=21827840kB time=05:55:15.30 bitrate=8389.0kbits/s speed=77.6x    frame=1283745 fps=4665 q=-1.0 size=21867520kB time=05:56:35.72 bitrate=8372.6kbits/s speed=77.8x    frame=1286707 fps=4667 q=-1.0 size=21907200kB time=05:57:25.09 bitrate=8368.5kbits/s speed=77.8x    frame=1288750 fps=4666 q=-1.0 size=21947648kB time=05:57:59.14 bitrate=8370.7kbits/s speed=77.8x    frame=1290848 fps=4665 q=-1.0 size=21990144kB time=05:58:34.11 bitrate=8373.3kbits/s speed=77.8x    frame=1292903 fps=4664 q=-1.0 size=22030848kB time=05:59:08.37 bitrate=8375.4kbits/s speed=77.7x    frame=1295066 fps=4664 q=-1.0 size=22071552kB time=05:59:44.42 bitrate=8376.9kbits/s speed=77.7x    frame=1297433 fps=4664 q=-1.0 size=22114048kB time=06:00:23.87 bitrate=8377.7kbits/s speed=77.7x    frame=1299416 fps=4663 q=-1.0 size=22151168kB time=06:00:56.91 bitrate=8379.0kbits/s speed=77.7x    frame=1301901 fps=4663 q=-1.0 size=22193664kB time=06:01:38.32 bitrate=8379.0kbits/s speed=77.7x    frame=1304163 fps=4663 q=-1.0 size=22235136kB time=06:02:16.02 bitrate=8380.1kbits/s speed=77.7x    frame=1308030 fps=4668 q=-1.0 size=22275072kB time=06:03:20.49 bitrate=8370.3kbits/s speed=77.8x    frame=1310845 fps=4670 q=-1.0 size=22316544kB time=06:04:07.39 bitrate=8367.9kbits/s speed=77.8x    frame=1315984 fps=4680 q=-1.0 size=22354176kB time=06:05:33.05 bitrate=8349.3kbits/s speed=  78x    frame=1316592 fps=4681 q=-1.0 Lsize=22358594kB time=06:05:43.19 bitrate=8347.1kbits/s speed=  78x    
video:21787698kB audio:526813kB subtitle:0kB other streams:0kB global headers:0kB muxing overhead: 0.197551%
